<?xml version="1.0" encoding="UTF-8" standalone="no"?>
<!DOCTYPE svg PUBLIC "-//W3C//DTD SVG 1.1//EN"
 "http://www.w3.org/Graphics/SVG/1.1/DTD/svg11.dtd">
<!-- Generated by graphviz version 2.38.0 (20140413.2041)
 -->
<!-- Title: G Pages: 1 -->
<svg width="732pt" height="1380pt"
 viewBox="0.00 0.00 732.00 1380.00" xmlns="http://www.w3.org/2000/svg" xmlns:xlink="http://www.w3.org/1999/xlink">
<g id="graph0" class="graph" transform="scale(1 1) rotate(0) translate(4 1376)">
<title>G</title>
<polygon fill="white" stroke="none" points="-4,4 -4,-1376 728,-1376 728,4 -4,4"/>
<g id="clust1" class="cluster"><title>cluster_Global</title>
<path fill="none" stroke="gray" d="M20,-8C20,-8 704,-8 704,-8 710,-8 716,-14 716,-20 716,-20 716,-1352 716,-1352 716,-1358 710,-1364 704,-1364 704,-1364 20,-1364 20,-1364 14,-1364 8,-1358 8,-1352 8,-1352 8,-20 8,-20 8,-14 14,-8 20,-8"/>
<text text-anchor="middle" x="362" y="-1351.2" font-family="Times,serif" font-size="11.00" fill="gray">Global</text>
</g>
<g id="clust2" class="cluster"><title>cluster_\Affluatif</title>
<path fill="none" stroke="gray" d="M28,-16C28,-16 696,-16 696,-16 702,-16 708,-22 708,-28 708,-28 708,-1324 708,-1324 708,-1330 702,-1336 696,-1336 696,-1336 28,-1336 28,-1336 22,-1336 16,-1330 16,-1324 16,-1324 16,-28 16,-28 16,-22 22,-16 28,-16"/>
<text text-anchor="middle" x="362" y="-1323.2" font-family="Times,serif" font-size="11.00" fill="gray">Affluatif</text>
</g>
<g id="clust3" class="cluster"><title>cluster_\Affluatif\View</title>
<path fill="none" stroke="gray" d="M207.5,-562C207.5,-562 688,-562 688,-562 694,-562 700,-568 700,-574 700,-574 700,-1296 700,-1296 700,-1302 694,-1308 688,-1308 688,-1308 207.5,-1308 207.5,-1308 201.5,-1308 195.5,-1302 195.5,-1296 195.5,-1296 195.5,-574 195.5,-574 195.5,-568 201.5,-562 207.5,-562"/>
<text text-anchor="middle" x="447.75" y="-1295.2" font-family="Times,serif" font-size="11.00" fill="gray">View</text>
</g>
<g id="clust4" class="cluster"><title>cluster_\Affluatif\View\Modal</title>
<path fill="none" stroke="gray" d="M404.5,-884C404.5,-884 680,-884 680,-884 686,-884 692,-890 692,-896 692,-896 692,-1268 692,-1268 692,-1274 686,-1280 680,-1280 680,-1280 404.5,-1280 404.5,-1280 398.5,-1280 392.5,-1274 392.5,-1268 392.5,-1268 392.5,-896 392.5,-896 392.5,-890 398.5,-884 404.5,-884"/>
<text text-anchor="middle" x="542.25" y="-1267.2" font-family="Times,serif" font-size="11.00" fill="gray">Modal</text>
</g>
<g id="clust5" class="cluster"><title>cluster_\Affluatif\Services</title>
<path fill="none" stroke="gray" d="M184,-212C184,-212 321,-212 321,-212 327,-212 333,-218 333,-224 333,-224 333,-542 333,-542 333,-548 327,-554 321,-554 321,-554 184,-554 184,-554 178,-554 172,-548 172,-542 172,-542 172,-224 172,-224 172,-218 178,-212 184,-212"/>
<text text-anchor="middle" x="252.5" y="-541.2" font-family="Times,serif" font-size="11.00" fill="gray">Services</text>
</g>
<g id="clust6" class="cluster"><title>cluster_\Affluatif\Traits</title>
<path fill="none" stroke="gray" d="M573.5,-463C573.5,-463 663.5,-463 663.5,-463 669.5,-463 675.5,-469 675.5,-475 675.5,-475 675.5,-523 675.5,-523 675.5,-529 669.5,-535 663.5,-535 663.5,-535 573.5,-535 573.5,-535 567.5,-535 561.5,-529 561.5,-523 561.5,-523 561.5,-475 561.5,-475 561.5,-469 567.5,-463 573.5,-463"/>
<text text-anchor="middle" x="618.5" y="-522.2" font-family="Times,serif" font-size="11.00" fill="gray">Traits</text>
</g>
<g id="clust7" class="cluster"><title>cluster_\Affluatif\Processing</title>
<path fill="none" stroke="gray" d="M191,-24C191,-24 314,-24 314,-24 320,-24 326,-30 326,-36 326,-36 326,-192 326,-192 326,-198 320,-204 314,-204 314,-204 191,-204 191,-204 185,-204 179,-198 179,-192 179,-192 179,-36 179,-36 179,-30 185,-24 191,-24"/>
<text text-anchor="middle" x="252.5" y="-191.2" font-family="Times,serif" font-size="11.00" fill="gray">Processing</text>
</g>
<!-- \\Affluatif\\View\\Modal\\AjoutUserModale -->
<g id="node1" class="node"><title>\\Affluatif\\View\\Modal\\AjoutUserModale</title>
<polygon fill="none" stroke="black" points="677.5,-1252 559.5,-1252 559.5,-1216 677.5,-1216 677.5,-1252"/>
<text text-anchor="middle" x="618.5" y="-1231.2" font-family="Courier,monospace" font-size="11.00">AjoutUserModale</text>
</g>
<!-- \\Affluatif\\View\\Modal\\BaseModal -->
<g id="node4" class="node"><title>\\Affluatif\\View\\Modal\\BaseModal</title>
<polygon fill="none" stroke="black" points="477.5,-1063 400.5,-1063 400.5,-1027 477.5,-1027 477.5,-1063"/>
<text text-anchor="middle" x="439" y="-1042.2" font-family="Courier,monospace" font-size="11.00">BaseModal</text>
</g>
<!-- \\Affluatif\\View\\Modal\\AjoutUserModale&#45;&gt;\\Affluatif\\View\\Modal\\BaseModal -->
<g id="edge2" class="edge"><title>\\Affluatif\\View\\Modal\\AjoutUserModale&#45;&gt;\\Affluatif\\View\\Modal\\BaseModal</title>
<path fill="none" stroke="black" d="M566.284,-1215.84C561.579,-1213.22 557.062,-1210.28 553,-1207 506.414,-1169.4 470.814,-1107.74 452.882,-1072.32"/>
<polygon fill="none" stroke="black" points="455.874,-1070.48 448.298,-1063.07 449.602,-1073.59 455.874,-1070.48"/>
</g>
<!-- \\Affluatif\\View\\Modal\\ConnexionModale -->
<g id="node2" class="node"><title>\\Affluatif\\View\\Modal\\ConnexionModale</title>
<polygon fill="none" stroke="black" points="677.5,-1198 559.5,-1198 559.5,-1162 677.5,-1162 677.5,-1198"/>
<text text-anchor="middle" x="618.5" y="-1177.2" font-family="Courier,monospace" font-size="11.00">ConnexionModale</text>
</g>
<!-- \\Affluatif\\View\\Modal\\ConnexionModale&#45;&gt;\\Affluatif\\View\\Modal\\BaseModal -->
<g id="edge5" class="edge"><title>\\Affluatif\\View\\Modal\\ConnexionModale&#45;&gt;\\Affluatif\\View\\Modal\\BaseModal</title>
<path fill="none" stroke="black" d="M568.946,-1161.98C563.412,-1159.26 557.977,-1156.26 553,-1153 517.506,-1129.76 483.223,-1094.63 461.908,-1070.8"/>
<polygon fill="none" stroke="black" points="464.432,-1068.37 455.194,-1063.18 459.181,-1073 464.432,-1068.37"/>
</g>
<!-- \\Affluatif\\View\\Modal\\ConfirmModale -->
<g id="node3" class="node"><title>\\Affluatif\\View\\Modal\\ConfirmModale</title>
<polygon fill="none" stroke="black" points="670.5,-1144 566.5,-1144 566.5,-1108 670.5,-1108 670.5,-1144"/>
<text text-anchor="middle" x="618.5" y="-1123.2" font-family="Courier,monospace" font-size="11.00">ConfirmModale</text>
</g>
<!-- \\Affluatif\\View\\Modal\\ConfirmModale&#45;&gt;\\Affluatif\\View\\Modal\\BaseModal -->
<g id="edge6" class="edge"><title>\\Affluatif\\View\\Modal\\ConfirmModale&#45;&gt;\\Affluatif\\View\\Modal\\BaseModal</title>
<path fill="none" stroke="black" d="M573.658,-1107.99C566.722,-1105.04 559.647,-1101.98 553,-1099 530.716,-1089.02 506.237,-1077.4 485.778,-1067.51"/>
<polygon fill="none" stroke="black" points="487.208,-1064.31 476.683,-1063.09 484.152,-1070.61 487.208,-1064.31"/>
</g>
<!-- \\Affluatif\\View\\BaseTemplate -->
<g id="node11" class="node"><title>\\Affluatif\\View\\BaseTemplate</title>
<polygon fill="none" stroke="black" points="301.5,-741 203.5,-741 203.5,-705 301.5,-705 301.5,-741"/>
<text text-anchor="start" x="218.5" y="-726.2" font-family="Courier,monospace" font-size="11.00">«abstract»</text>
<text text-anchor="start" x="211.5" y="-714.2" font-family="Courier,monospace" font-size="11.00">BaseTemplate</text>
</g>
<!-- \\Affluatif\\View\\Modal\\BaseModal&#45;&gt;\\Affluatif\\View\\BaseTemplate -->
<g id="edge8" class="edge"><title>\\Affluatif\\View\\Modal\\BaseModal&#45;&gt;\\Affluatif\\View\\BaseTemplate</title>
<path fill="none" stroke="black" d="M400.297,-1029.48C397.485,-1027.53 394.838,-1025.38 392.5,-1023 313.489,-942.675 273.924,-809.163 259.764,-751.245"/>
<polygon fill="none" stroke="black" points="263.128,-750.26 257.412,-741.34 256.317,-751.878 263.128,-750.26"/>
</g>
<!-- \\Affluatif\\View\\Modal\\AlertesModale -->
<g id="node5" class="node"><title>\\Affluatif\\View\\Modal\\AlertesModale</title>
<polygon fill="none" stroke="black" points="670.5,-1090 566.5,-1090 566.5,-1054 670.5,-1054 670.5,-1090"/>
<text text-anchor="middle" x="618.5" y="-1069.2" font-family="Courier,monospace" font-size="11.00">AlertesModale</text>
</g>
<!-- \\Affluatif\\View\\Modal\\AlertesModale&#45;&gt;\\Affluatif\\View\\Modal\\BaseModal -->
<g id="edge10" class="edge"><title>\\Affluatif\\View\\Modal\\AlertesModale&#45;&gt;\\Affluatif\\View\\Modal\\BaseModal</title>
<path fill="none" stroke="black" d="M566.16,-1064.19C541.433,-1060.43 511.964,-1055.95 487.728,-1052.26"/>
<polygon fill="none" stroke="black" points="488.103,-1048.78 477.691,-1050.73 487.051,-1055.7 488.103,-1048.78"/>
</g>
<!-- \\Affluatif\\View\\Modal\\ContactModale -->
<g id="node6" class="node"><title>\\Affluatif\\View\\Modal\\ContactModale</title>
<polygon fill="none" stroke="black" points="670.5,-1036 566.5,-1036 566.5,-1000 670.5,-1000 670.5,-1036"/>
<text text-anchor="middle" x="618.5" y="-1015.2" font-family="Courier,monospace" font-size="11.00">ContactModale</text>
</g>
<!-- \\Affluatif\\View\\Modal\\ContactModale&#45;&gt;\\Affluatif\\View\\Modal\\BaseModal -->
<g id="edge12" class="edge"><title>\\Affluatif\\View\\Modal\\ContactModale&#45;&gt;\\Affluatif\\View\\Modal\\BaseModal</title>
<path fill="none" stroke="black" d="M566.16,-1025.81C541.433,-1029.57 511.964,-1034.05 487.728,-1037.74"/>
<polygon fill="none" stroke="black" points="487.051,-1034.3 477.691,-1039.27 488.103,-1041.22 487.051,-1034.3"/>
</g>
<!-- \\Affluatif\\View\\Modal\\DroitsUserModale -->
<g id="node7" class="node"><title>\\Affluatif\\View\\Modal\\DroitsUserModale</title>
<polygon fill="none" stroke="black" points="681,-982 556,-982 556,-946 681,-946 681,-982"/>
<text text-anchor="middle" x="618.5" y="-961.2" font-family="Courier,monospace" font-size="11.00">DroitsUserModale</text>
</g>
<!-- \\Affluatif\\View\\Modal\\DroitsUserModale&#45;&gt;\\Affluatif\\View\\Modal\\BaseModal -->
<g id="edge19" class="edge"><title>\\Affluatif\\View\\Modal\\DroitsUserModale&#45;&gt;\\Affluatif\\View\\Modal\\BaseModal</title>
<path fill="none" stroke="black" d="M573.658,-982.01C566.722,-984.958 559.647,-988.023 553,-991 530.716,-1000.98 506.237,-1012.6 485.778,-1022.49"/>
<polygon fill="none" stroke="black" points="484.152,-1019.39 476.683,-1026.91 487.208,-1025.69 484.152,-1019.39"/>
</g>
<!-- \\Affluatif\\View\\Modal\\AjoutSourceModale -->
<g id="node8" class="node"><title>\\Affluatif\\View\\Modal\\AjoutSourceModale</title>
<polygon fill="none" stroke="black" points="684,-928 553,-928 553,-892 684,-892 684,-928"/>
<text text-anchor="middle" x="618.5" y="-907.2" font-family="Courier,monospace" font-size="11.00">AjoutSourceModale</text>
</g>
<!-- \\Affluatif\\View\\Modal\\AjoutSourceModale&#45;&gt;\\Affluatif\\View\\Modal\\BaseModal -->
<g id="edge23" class="edge"><title>\\Affluatif\\View\\Modal\\AjoutSourceModale&#45;&gt;\\Affluatif\\View\\Modal\\BaseModal</title>
<path fill="none" stroke="black" d="M567.574,-928.01C562.458,-930.693 557.495,-933.687 553,-937 515.379,-964.725 518.997,-988.396 483.514,-1020.34"/>
<polygon fill="none" stroke="black" points="481.22,-1017.7 475.872,-1026.85 485.756,-1023.03 481.22,-1017.7"/>
</g>
<!-- \\Affluatif\\View\\Erreur -->
<g id="node9" class="node"><title>\\Affluatif\\View\\Erreur</title>
<polygon fill="none" stroke="black" points="467.5,-876 410.5,-876 410.5,-840 467.5,-840 467.5,-876"/>
<text text-anchor="middle" x="439" y="-855.2" font-family="Courier,monospace" font-size="11.00">Erreur</text>
</g>
<!-- \\Affluatif\\View\\Erreur&#45;&gt;\\Affluatif\\View\\BaseTemplate -->
<g id="edge1" class="edge"><title>\\Affluatif\\View\\Erreur&#45;&gt;\\Affluatif\\View\\BaseTemplate</title>
<path fill="none" stroke="black" d="M410.225,-842.267C404.289,-838.698 398.117,-834.827 392.5,-831 353.361,-804.336 310.672,-770.378 283.073,-747.727"/>
<polygon fill="none" stroke="black" points="284.955,-744.743 275.012,-741.082 280.501,-750.144 284.955,-744.743"/>
</g>
<!-- \\Affluatif\\View\\LiveView -->
<g id="node10" class="node"><title>\\Affluatif\\View\\LiveView</title>
<polygon fill="none" stroke="black" points="474.5,-822 403.5,-822 403.5,-786 474.5,-786 474.5,-822"/>
<text text-anchor="middle" x="439" y="-801.2" font-family="Courier,monospace" font-size="11.00">LiveView</text>
</g>
<!-- \\Affluatif\\View\\LiveView&#45;&gt;\\Affluatif\\View\\BaseTemplate -->
<g id="edge7" class="edge"><title>\\Affluatif\\View\\LiveView&#45;&gt;\\Affluatif\\View\\BaseTemplate</title>
<path fill="none" stroke="black" d="M403.297,-788.765C375.39,-776.513 335.785,-759.125 304.307,-745.306"/>
<polygon fill="none" stroke="black" points="305.384,-741.956 294.821,-741.141 302.57,-748.366 305.384,-741.956"/>
</g>
<!-- \\Affluatif\\BaseClass -->
<g id="node28" class="node"><title>\\Affluatif\\BaseClass</title>
<polygon fill="none" stroke="black" points="108,-364 24,-364 24,-328 108,-328 108,-364"/>
<text text-anchor="start" x="32" y="-349.2" font-family="Courier,monospace" font-size="11.00">«abstract»</text>
<text text-anchor="start" x="35.5" y="-337.2" font-family="Courier,monospace" font-size="11.00">BaseClass</text>
</g>
<!-- \\Affluatif\\View\\BaseTemplate&#45;&gt;\\Affluatif\\BaseClass -->
<g id="edge9" class="edge"><title>\\Affluatif\\View\\BaseTemplate&#45;&gt;\\Affluatif\\BaseClass</title>
<path fill="none" stroke="black" d="M242.601,-704.817C212.704,-643.725 115.751,-445.615 80.2132,-372.999"/>
<polygon fill="none" stroke="black" points="83.349,-371.445 75.8095,-364.001 77.0616,-374.522 83.349,-371.445"/>
</g>
<!-- \\Affluatif\\View\\StatsVideo -->
<g id="node12" class="node"><title>\\Affluatif\\View\\StatsVideo</title>
<polygon fill="none" stroke="black" points="481,-768 397,-768 397,-732 481,-732 481,-768"/>
<text text-anchor="middle" x="439" y="-747.2" font-family="Courier,monospace" font-size="11.00">StatsVideo</text>
</g>
<!-- \\Affluatif\\View\\StatsVideo&#45;&gt;\\Affluatif\\View\\BaseTemplate -->
<g id="edge11" class="edge"><title>\\Affluatif\\View\\StatsVideo&#45;&gt;\\Affluatif\\View\\BaseTemplate</title>
<path fill="none" stroke="black" d="M396.595,-743.941C371.519,-740.271 339.156,-735.535 311.551,-731.495"/>
<polygon fill="none" stroke="black" points="312.02,-728.027 301.619,-730.042 311.006,-734.953 312.02,-728.027"/>
</g>
<!-- \\Affluatif\\View\\Alertes -->
<g id="node13" class="node"><title>\\Affluatif\\View\\Alertes</title>
<polygon fill="none" stroke="black" points="471,-714 407,-714 407,-678 471,-678 471,-714"/>
<text text-anchor="middle" x="439" y="-693.2" font-family="Courier,monospace" font-size="11.00">Alertes</text>
</g>
<!-- \\Affluatif\\View\\Alertes&#45;&gt;\\Affluatif\\View\\BaseTemplate -->
<g id="edge13" class="edge"><title>\\Affluatif\\View\\Alertes&#45;&gt;\\Affluatif\\View\\BaseTemplate</title>
<path fill="none" stroke="black" d="M406.702,-700.58C380.727,-704.381 343.081,-709.891 311.608,-714.496"/>
<polygon fill="none" stroke="black" points="311.017,-711.046 301.629,-715.957 312.03,-717.972 311.017,-711.046"/>
</g>
<!-- \\Affluatif\\View\\AdminHome -->
<g id="node14" class="node"><title>\\Affluatif\\View\\AdminHome</title>
<polygon fill="none" stroke="black" points="477.5,-660 400.5,-660 400.5,-624 477.5,-624 477.5,-660"/>
<text text-anchor="middle" x="439" y="-639.2" font-family="Courier,monospace" font-size="11.00">AdminHome</text>
</g>
<!-- \\Affluatif\\View\\AdminHome&#45;&gt;\\Affluatif\\View\\BaseTemplate -->
<g id="edge14" class="edge"><title>\\Affluatif\\View\\AdminHome&#45;&gt;\\Affluatif\\View\\BaseTemplate</title>
<path fill="none" stroke="black" d="M400.218,-658.587C372.416,-670.793 334.329,-687.514 303.929,-700.86"/>
<polygon fill="none" stroke="black" points="302.51,-697.661 294.761,-704.885 305.324,-704.07 302.51,-697.661"/>
</g>
<!-- \\Affluatif\\View\\Homepage -->
<g id="node15" class="node"><title>\\Affluatif\\View\\Homepage</title>
<polygon fill="none" stroke="black" points="474.5,-606 403.5,-606 403.5,-570 474.5,-570 474.5,-606"/>
<text text-anchor="middle" x="439" y="-585.2" font-family="Courier,monospace" font-size="11.00">Homepage</text>
</g>
<!-- \\Affluatif\\View\\Homepage&#45;&gt;\\Affluatif\\View\\BaseTemplate -->
<g id="edge18" class="edge"><title>\\Affluatif\\View\\Homepage&#45;&gt;\\Affluatif\\View\\BaseTemplate</title>
<path fill="none" stroke="black" d="M406.35,-606.087C401.646,-608.974 396.903,-612 392.5,-615 353.361,-641.664 310.672,-675.622 283.073,-698.273"/>
<polygon fill="none" stroke="black" points="280.501,-695.856 275.012,-704.918 284.955,-701.257 280.501,-695.856"/>
</g>
<!-- \\Affluatif\\Services\\InterpretersManager -->
<g id="node16" class="node"><title>\\Affluatif\\Services\\InterpretersManager</title>
<polygon fill="none" stroke="black" points="325,-526 180,-526 180,-490 325,-490 325,-526"/>
<text text-anchor="middle" x="252.5" y="-505.2" font-family="Courier,monospace" font-size="11.00">InterpretersManager</text>
</g>
<!-- \\Affluatif\\Services\\InterpretersManager&#45;&gt;\\Affluatif\\BaseClass -->
<g id="edge3" class="edge"><title>\\Affluatif\\Services\\InterpretersManager&#45;&gt;\\Affluatif\\BaseClass</title>
<path fill="none" stroke="black" d="M187.361,-489.992C181.957,-487.365 176.75,-484.381 172,-481 131.444,-452.133 98.9736,-403.175 81.3932,-372.822"/>
<polygon fill="none" stroke="black" points="84.3952,-371.02 76.4228,-364.042 78.3036,-374.469 84.3952,-371.02"/>
</g>
<!-- \\Affluatif\\Services\\Securite -->
<g id="node17" class="node"><title>\\Affluatif\\Services\\Securite</title>
<polygon fill="none" stroke="black" points="288,-472 217,-472 217,-436 288,-436 288,-472"/>
<text text-anchor="middle" x="252.5" y="-451.2" font-family="Courier,monospace" font-size="11.00">Securite</text>
</g>
<!-- \\Affluatif\\Services\\Securite&#45;&gt;\\Affluatif\\BaseClass -->
<g id="edge4" class="edge"><title>\\Affluatif\\Services\\Securite&#45;&gt;\\Affluatif\\BaseClass</title>
<path fill="none" stroke="black" d="M216.815,-444.944C202.493,-440.518 186.002,-434.509 172,-427 143.341,-411.631 114.342,-388.563 94.1026,-370.97"/>
<polygon fill="none" stroke="black" points="96.3408,-368.277 86.5272,-364.284 91.7089,-373.526 96.3408,-368.277"/>
</g>
<!-- \\Affluatif\\Services\\Notify -->
<g id="node18" class="node"><title>\\Affluatif\\Services\\Notify</title>
<polygon fill="none" stroke="black" points="281,-418 224,-418 224,-382 281,-382 281,-418"/>
<text text-anchor="middle" x="252.5" y="-397.2" font-family="Courier,monospace" font-size="11.00">Notify</text>
</g>
<!-- \\Affluatif\\Services\\Notify&#45;&gt;\\Affluatif\\BaseClass -->
<g id="edge15" class="edge"><title>\\Affluatif\\Services\\Notify&#45;&gt;\\Affluatif\\BaseClass</title>
<path fill="none" stroke="black" d="M223.878,-391.916C195.973,-383.748 152.211,-370.94 117.99,-360.924"/>
<polygon fill="none" stroke="black" points="118.739,-357.496 108.159,-358.046 116.773,-364.215 118.739,-357.496"/>
</g>
<!-- \\Affluatif\\Services\\Functions -->
<g id="node19" class="node"><title>\\Affluatif\\Services\\Functions</title>
<polygon fill="none" stroke="black" points="291,-364 214,-364 214,-328 291,-328 291,-364"/>
<text text-anchor="middle" x="252.5" y="-343.2" font-family="Courier,monospace" font-size="11.00">Functions</text>
</g>
<!-- \\Affluatif\\Services\\Functions&#45;&gt;\\Affluatif\\BaseClass -->
<g id="edge17" class="edge"><title>\\Affluatif\\Services\\Functions&#45;&gt;\\Affluatif\\BaseClass</title>
<path fill="none" stroke="black" d="M213.718,-346C186.275,-346 148.812,-346 118.612,-346"/>
<polygon fill="none" stroke="black" points="118.261,-342.5 108.261,-346 118.261,-349.5 118.261,-342.5"/>
</g>
<!-- \\Affluatif\\Services\\Config -->
<g id="node20" class="node"><title>\\Affluatif\\Services\\Config</title>
<polygon fill="none" stroke="black" points="281,-310 224,-310 224,-274 281,-274 281,-310"/>
<text text-anchor="middle" x="252.5" y="-289.2" font-family="Courier,monospace" font-size="11.00">Config</text>
</g>
<!-- \\Affluatif\\Services\\RabbitMQ -->
<g id="node21" class="node"><title>\\Affluatif\\Services\\RabbitMQ</title>
<polygon fill="none" stroke="black" points="288,-256 217,-256 217,-220 288,-220 288,-256"/>
<text text-anchor="middle" x="252.5" y="-235.2" font-family="Courier,monospace" font-size="11.00">RabbitMQ</text>
</g>
<!-- \\Affluatif\\Services\\RabbitMQ&#45;&gt;\\Affluatif\\BaseClass -->
<g id="edge22" class="edge"><title>\\Affluatif\\Services\\RabbitMQ&#45;&gt;\\Affluatif\\BaseClass</title>
<path fill="none" stroke="black" d="M216.815,-247.056C202.493,-251.482 186.002,-257.491 172,-265 143.341,-280.369 114.342,-303.437 94.1026,-321.03"/>
<polygon fill="none" stroke="black" points="91.7089,-318.474 86.5272,-327.716 96.3408,-323.723 91.7089,-318.474"/>
</g>
<!-- \\Affluatif\\Traits\\Autocomplete -->
<g id="node22" class="node"><title>\\Affluatif\\Traits\\Autocomplete</title>
<polygon fill="none" stroke="black" points="667.5,-507 569.5,-507 569.5,-471 667.5,-471 667.5,-507"/>
<text text-anchor="middle" x="618.5" y="-486.2" font-family="Courier,monospace" font-size="11.00">Autocomplete</text>
</g>
<!-- \\Affluatif\\Processing\\VideoProcessing -->
<g id="node23" class="node"><title>\\Affluatif\\Processing\\VideoProcessing</title>
<polygon fill="none" stroke="black" points="311.5,-176 193.5,-176 193.5,-140 311.5,-140 311.5,-176"/>
<text text-anchor="middle" x="252.5" y="-155.2" font-family="Courier,monospace" font-size="11.00">VideoProcessing</text>
</g>
<!-- \\Affluatif\\Processing\\VideoProcessing&#45;&gt;\\Affluatif\\BaseClass -->
<g id="edge16" class="edge"><title>\\Affluatif\\Processing\\VideoProcessing&#45;&gt;\\Affluatif\\BaseClass</title>
<path fill="none" stroke="black" d="M216.73,-176.194C202.074,-184.762 185.354,-195.784 172,-208 135.161,-241.698 101.986,-289.651 83.1885,-319.247"/>
<polygon fill="none" stroke="black" points="80.1695,-317.474 77.8283,-327.806 86.1022,-321.189 80.1695,-317.474"/>
</g>
<!-- \\Affluatif\\Processing\\AuthProcessing -->
<g id="node24" class="node"><title>\\Affluatif\\Processing\\AuthProcessing</title>
<polygon fill="none" stroke="black" points="308,-122 197,-122 197,-86 308,-86 308,-122"/>
<text text-anchor="middle" x="252.5" y="-101.2" font-family="Courier,monospace" font-size="11.00">AuthProcessing</text>
</g>
<!-- \\Affluatif\\Processing\\AuthProcessing&#45;&gt;\\Affluatif\\BaseClass -->
<g id="edge20" class="edge"><title>\\Affluatif\\Processing\\AuthProcessing&#45;&gt;\\Affluatif\\BaseClass</title>
<path fill="none" stroke="black" d="M196.648,-116.206C187.736,-119.916 179.111,-124.739 172,-131 114.008,-182.063 84.8555,-272.431 73.2496,-318.027"/>
<polygon fill="none" stroke="black" points="69.8287,-317.281 70.8515,-327.827 76.6281,-318.945 69.8287,-317.281"/>
</g>
<!-- \\Affluatif\\Processing\\AlertesProcessing -->
<g id="node25" class="node"><title>\\Affluatif\\Processing\\AlertesProcessing</title>
<polygon fill="none" stroke="black" points="318,-68 187,-68 187,-32 318,-32 318,-68"/>
<text text-anchor="middle" x="252.5" y="-47.2" font-family="Courier,monospace" font-size="11.00">AlertesProcessing</text>
</g>
<!-- \\Affluatif\\Processing\\AlertesProcessing&#45;&gt;\\Affluatif\\BaseClass -->
<g id="edge21" class="edge"><title>\\Affluatif\\Processing\\AlertesProcessing&#45;&gt;\\Affluatif\\BaseClass</title>
<path fill="none" stroke="black" d="M186.993,-66.1884C181.537,-69.1995 176.425,-72.769 172,-77 101.854,-144.075 77.7533,-263.537 70.1715,-317.795"/>
<polygon fill="none" stroke="black" points="66.6971,-317.372 68.8667,-327.742 73.6377,-318.283 66.6971,-317.372"/>
</g>
<!-- \\Affluatif\\Dev -->
<g id="node26" class="node"><title>\\Affluatif\\Dev</title>
<polygon fill="none" stroke="black" points="645.5,-434 591.5,-434 591.5,-398 645.5,-398 645.5,-434"/>
<text text-anchor="middle" x="618.5" y="-413.2" font-family="Courier,monospace" font-size="11.00">Dev</text>
</g>
<!-- \\Affluatif\\BDDConnector -->
<g id="node27" class="node"><title>\\Affluatif\\BDDConnector</title>
<polygon fill="none" stroke="black" points="667.5,-342 569.5,-342 569.5,-306 667.5,-306 667.5,-342"/>
<text text-anchor="middle" x="618.5" y="-321.2" font-family="Courier,monospace" font-size="11.00">BDDConnector</text>
</g>
<!-- \\Affluatif\\ServiceContainer -->
<g id="node29" class="node"><title>\\Affluatif\\ServiceContainer</title>
<polygon fill="none" stroke="black" points="681,-212 556,-212 556,-176 681,-176 681,-212"/>
<text text-anchor="middle" x="618.5" y="-191.2" font-family="Courier,monospace" font-size="11.00">ServiceContainer</text>
</g>
</g>
</svg>
